<svg width="343" height="88" viewBox="0 0 343 88" fill="none" xmlns="http://www.w3.org/2000/svg">
<g clip-path="url(#clip0_1423_6960)">
<rect width="232.862" height="40.9577" rx="20.4789" transform="matrix(0.845213 -0.53443 0.97338 0.229197 -36.8391 105.468)" fill="url(#paint0_linear_1423_6960)" fill-opacity="0.7"/>
<rect width="354.005" height="57.1496" rx="28.5748" transform="matrix(0.845213 -0.53443 0.97338 0.229197 33.4313 136.03)" fill="url(#paint1_linear_1423_6960)" fill-opacity="0.5"/>
<rect x="15.6506" y="16.2578" width="144.897" height="38" rx="19" transform="rotate(-31.5266 15.6506 16.2578)" fill="url(#paint2_linear_1423_6960)" fill-opacity="0.8"/>
<rect x="270.612" y="47.4749" width="97.2575" height="38" rx="19" transform="rotate(-31.5266 270.612 47.4749)" fill="url(#paint3_linear_1423_6960)" fill-opacity="0.8"/>
<rect x="219.231" y="88.3781" width="123.973" height="23.6181" rx="11.8091" transform="rotate(-31.5266 219.231 88.3781)" fill="url(#paint4_linear_1423_6960)" fill-opacity="0.4"/>
<rect x="90.8259" y="91.1895" width="127.797" height="23.6181" rx="11.8091" transform="rotate(-31.5266 90.8259 91.1895)" fill="url(#paint5_linear_1423_6960)" fill-opacity="0.4"/>
<rect x="200.826" y="64.1895" width="127.797" height="23.6181" rx="11.8091" transform="rotate(-31.5266 200.826 64.1895)" fill="url(#paint6_linear_1423_6960)" fill-opacity="0.4"/>
</g>
<defs>
<linearGradient id="paint0_linear_1423_6960" x1="42.2336" y1="32.8149" x2="232.755" y2="18.2605" gradientUnits="userSpaceOnUse">
<stop stop-color="#FE795B" stop-opacity="0"/>
<stop offset="0.270824" stop-color="#FE957E" stop-opacity="0.202503"/>
<stop offset="1" stop-color="#FFE9E9" stop-opacity="0"/>
</linearGradient>
<linearGradient id="paint1_linear_1423_6960" x1="0" y1="27.4318" x2="354.005" y2="27.4318" gradientUnits="userSpaceOnUse">
<stop stop-color="#FFB545" stop-opacity="0.19"/>
<stop offset="1" stop-color="white" stop-opacity="0"/>
</linearGradient>
<linearGradient id="paint2_linear_1423_6960" x1="15.6506" y1="34.4978" x2="139.975" y2="30.1474" gradientUnits="userSpaceOnUse">
<stop stop-color="#FFD5BD" stop-opacity="0.04"/>
<stop offset="1" stop-color="#FFB899" stop-opacity="0.35"/>
</linearGradient>
<linearGradient id="paint3_linear_1423_6960" x1="270.612" y1="65.7149" x2="354.116" y2="63.7536" gradientUnits="userSpaceOnUse">
<stop stop-color="#F9AE84" stop-opacity="0.04"/>
<stop offset="1" stop-color="#FFB899" stop-opacity="0.35"/>
</linearGradient>
<linearGradient id="paint4_linear_1423_6960" x1="223.351" y1="105.126" x2="328.951" y2="101.276" gradientUnits="userSpaceOnUse">
<stop stop-color="#FFCFBA" stop-opacity="0.19"/>
<stop offset="1" stop-color="#FF974D" stop-opacity="0"/>
</linearGradient>
<linearGradient id="paint5_linear_1423_6960" x1="90.8259" y1="102.526" x2="218.623" y2="102.526" gradientUnits="userSpaceOnUse">
<stop stop-color="#FFCFBA" stop-opacity="0.19"/>
<stop offset="1" stop-color="#FF974D" stop-opacity="0"/>
</linearGradient>
<linearGradient id="paint6_linear_1423_6960" x1="200.826" y1="75.5262" x2="328.623" y2="75.5262" gradientUnits="userSpaceOnUse">
<stop stop-color="#FFCFBA" stop-opacity="0.19"/>
<stop offset="1" stop-color="#FF974D" stop-opacity="0"/>
</linearGradient>
<clipPath id="clip0_1423_6960">
<rect width="343" height="88" rx="10" fill="white"/>
</clipPath>
</defs>
</svg>
