<svg width="160" height="60" viewBox="0 0 160 60" fill="none" xmlns="http://www.w3.org/2000/svg">
<g clip-path="url(#clip0_1423_7164)">
<rect x="18.8259" y="41.1895" width="127.797" height="23.6181" rx="11.8091" transform="rotate(-31.5266 18.8259 41.1895)" fill="url(#paint0_linear_1423_7164)" fill-opacity="0.7"/>
<rect width="166.823" height="57.1496" rx="28.5748" transform="matrix(0.845213 -0.53443 0.97338 0.229197 -1.22504 65.4481)" fill="url(#paint1_linear_1423_7164)" fill-opacity="0.5"/>
<rect x="-84.9934" y="55.8293" width="178.501" height="38" rx="19" transform="rotate(-31.5266 -84.9934 55.8293)" fill="url(#paint2_linear_1423_7164)" fill-opacity="0.8"/>
<rect x="46.7395" y="36.7054" width="116.074" height="19.7936" rx="9.89681" transform="rotate(-31.5266 46.7395 36.7054)" fill="url(#paint3_linear_1423_7164)" fill-opacity="0.8"/>
<rect x="116.826" y="56.1895" width="127.797" height="23.6181" rx="11.8091" transform="rotate(-31.5266 116.826 56.1895)" fill="url(#paint4_linear_1423_7164)" fill-opacity="0.4"/>
</g>
<defs>
<linearGradient id="paint0_linear_1423_7164" x1="42.0041" y1="60.1121" x2="145.334" y2="55.2024" gradientUnits="userSpaceOnUse">
<stop stop-color="#FE5BD0" stop-opacity="0.18"/>
<stop offset="0.270824" stop-color="#FE7EDA" stop-opacity="0.36"/>
<stop offset="1" stop-color="#FFDEEA" stop-opacity="0.21"/>
</linearGradient>
<linearGradient id="paint1_linear_1423_7164" x1="0" y1="27.4318" x2="166.823" y2="27.4318" gradientUnits="userSpaceOnUse">
<stop stop-color="#FFB8CD" stop-opacity="0.19"/>
<stop offset="1" stop-color="white" stop-opacity="0"/>
</linearGradient>
<linearGradient id="paint2_linear_1423_7164" x1="-84.9934" y1="74.0693" x2="68.0668" y2="67.4712" gradientUnits="userSpaceOnUse">
<stop stop-color="#FFBDE9" stop-opacity="0.04"/>
<stop offset="1" stop-color="#FFBBD3" stop-opacity="0.12"/>
</linearGradient>
<linearGradient id="paint3_linear_1423_7164" x1="46.7395" y1="46.2063" x2="146.167" y2="40.8556" gradientUnits="userSpaceOnUse">
<stop stop-color="#FFBDD5" stop-opacity="0.04"/>
<stop offset="1" stop-color="#FFADCB" stop-opacity="0.12"/>
</linearGradient>
<linearGradient id="paint4_linear_1423_7164" x1="116.826" y1="67.5262" x2="244.623" y2="67.5262" gradientUnits="userSpaceOnUse">
<stop stop-color="#FFBAD3" stop-opacity="0.34"/>
<stop offset="1" stop-color="#FF4D62" stop-opacity="0"/>
</linearGradient>
<clipPath id="clip0_1423_7164">
<rect width="160" height="60" rx="10" fill="white"/>
</clipPath>
</defs>
</svg>
