<svg width="170" height="60" viewBox="0 0 170 60" fill="none" xmlns="http://www.w3.org/2000/svg">
<g clip-path="url(#clip0_1423_7115)">
<rect x="-9.17407" y="41.1895" width="127.797" height="23.6181" rx="11.8091" transform="rotate(-31.5266 -9.17407 41.1895)" fill="url(#paint0_linear_1423_7115)" fill-opacity="0.7"/>
<rect width="166.823" height="57.1496" rx="28.5748" transform="matrix(0.845213 -0.53443 0.97338 0.229197 20.775 75.4481)" fill="url(#paint1_linear_1423_7115)" fill-opacity="0.5"/>
<rect x="-12.9934" y="55.8293" width="178.501" height="38" rx="19" transform="rotate(-31.5266 -12.9934 55.8293)" fill="url(#paint2_linear_1423_7115)" fill-opacity="0.8"/>
<rect x="68.7395" y="36.7054" width="116.074" height="19.7936" rx="9.89681" transform="rotate(-31.5266 68.7395 36.7054)" fill="url(#paint3_linear_1423_7115)" fill-opacity="0.8"/>
<rect x="90.8259" y="60.1895" width="127.797" height="23.6181" rx="11.8091" transform="rotate(-31.5266 90.8259 60.1895)" fill="url(#paint4_linear_1423_7115)" fill-opacity="0.4"/>
</g>
<defs>
<linearGradient id="paint0_linear_1423_7115" x1="14.0041" y1="60.1121" x2="117.334" y2="55.2024" gradientUnits="userSpaceOnUse">
<stop stop-color="#FE9F5B" stop-opacity="0.18"/>
<stop offset="0.270824" stop-color="#FEBC7E" stop-opacity="0.36"/>
<stop offset="1" stop-color="#FFE8AE" stop-opacity="0.21"/>
</linearGradient>
<linearGradient id="paint1_linear_1423_7115" x1="0" y1="27.4318" x2="166.823" y2="27.4318" gradientUnits="userSpaceOnUse">
<stop stop-color="#FFC670" stop-opacity="0.19"/>
<stop offset="1" stop-color="white" stop-opacity="0"/>
</linearGradient>
<linearGradient id="paint2_linear_1423_7115" x1="-12.9934" y1="74.0693" x2="140.067" y2="67.4712" gradientUnits="userSpaceOnUse">
<stop stop-color="#FFE9BD" stop-opacity="0.04"/>
<stop offset="1" stop-color="#FFE299" stop-opacity="0.12"/>
</linearGradient>
<linearGradient id="paint3_linear_1423_7115" x1="68.7395" y1="46.2063" x2="168.167" y2="40.8556" gradientUnits="userSpaceOnUse">
<stop stop-color="#FFE9BD" stop-opacity="0.04"/>
<stop offset="1" stop-color="#FFE299" stop-opacity="0.12"/>
</linearGradient>
<linearGradient id="paint4_linear_1423_7115" x1="90.8259" y1="71.5262" x2="218.623" y2="71.5262" gradientUnits="userSpaceOnUse">
<stop stop-color="#FFF8BA" stop-opacity="0.19"/>
<stop offset="1" stop-color="#FFD84D" stop-opacity="0"/>
</linearGradient>
<clipPath id="clip0_1423_7115">
<rect width="170" height="60" rx="10" fill="white"/>
</clipPath>
</defs>
</svg>
