<svg xmlns="http://www.w3.org/2000/svg" width="22" height="22" viewBox="0 0 22 22">
  <g id="home-svgrepo-com-05" transform="translate(0.012 -0.009)">
    <path id="路径_435" data-name="路径 435" d="M13.028,23.635H11.39a1.365,1.365,0,0,1-1.33-1.391V16.082A1.356,1.356,0,0,1,11.39,14.7h1.638a1.365,1.365,0,0,1,1.383,1.408v6.162a1.374,1.374,0,0,1-1.383,1.364ZM11.39,15.712a.405.405,0,0,0-.37.431v6.162a.405.405,0,0,0,.37.431h1.638a.405.405,0,0,0,.37-.431V16.144a.405.405,0,0,0-.37-.431Z" transform="translate(-1.2 -1.759)" fill="#aaa"/>
    <path id="路径_436" data-name="路径 436" d="M17.982,22.472H14.7V13.018c0-.141-.1-.255-.176-.255H8.292c-.079,0-.176.114-.176.255v9.454H4.822A1.884,1.884,0,0,1,3.06,20.526v-9.4L11.419,3.88l8.324,7.245v9.4A1.884,1.884,0,0,1,17.982,22.472ZM3.994,11.556v8.97a.925.925,0,0,0,.881.986H7.112V13.018a1.171,1.171,0,0,1,1.18-1.206h6.281a1.171,1.171,0,0,1,1.136,1.206v8.495h2.273a.925.925,0,0,0,.881-.995V11.556l-7.4-6.409Z" transform="translate(-0.366 -0.463)" fill="#aaa"/>
    <path id="路径_437" data-name="路径 437" d="M1.23,11.223H1.054a1.172,1.172,0,0,1-.784-.5A1.249,1.249,0,0,1,.517,9.04L.6,8.987l9.734-8.7a1.137,1.137,0,0,1,1.357,0l9.813,8.75a1.241,1.241,0,0,1,.291,1.629v.053a1.04,1.04,0,0,1-.96.511,1.172,1.172,0,0,1-.652-.211L11.034,2.992,1.953,10.968a1.207,1.207,0,0,1-.722.255ZM11.052.888a.291.291,0,0,0-.185.062L1.045,9.691a.431.431,0,0,0-.079.563.335.335,0,0,0,.22.141.291.291,0,0,0,.22-.062l9.628-8.451,9.637,8.46h.141a.317.317,0,0,0,.264-.158h0a.422.422,0,0,0-.1-.546L11.167.888A.22.22,0,0,0,11.052.888Z" transform="translate(-0.007 -0.007)" fill="#aaa"/>
    <path id="路径_438" data-name="路径 438" d="M1.223,11.26H1.038a1.216,1.216,0,0,1-.81-.519A1.285,1.285,0,0,1,.483,8.98l.088-.053L10.261.239a1.207,1.207,0,0,1,1.418,0l9.813,8.75a1.276,1.276,0,0,1,.3,1.69v.044a1.092,1.092,0,0,1-1,.537,1.2,1.2,0,0,1-.678-.22L11.027,3.047,1.972,10.97A1.172,1.172,0,0,1,1.223,11.26ZM11.045.089a1.19,1.19,0,0,0-.687.229L.668,9,.58,9.059a1.2,1.2,0,0,0-.238,1.62,1.119,1.119,0,0,0,.758.484h.167a1.154,1.154,0,0,0,.7-.246l9.064-7.984h0l9.143,8.02a1.084,1.084,0,0,0,.625.2.987.987,0,0,0,.925-.493h0a1.2,1.2,0,0,0-.282-1.576L11.661.283a1.049,1.049,0,0,0-.617-.194ZM1.223,10.424H1.17a.379.379,0,0,1-.247-.158.475.475,0,0,1,.088-.625L10.824.881a.361.361,0,0,1,.361,0L21,9.684a.475.475,0,0,1,.115.6h0a.361.361,0,0,1-.3.176h-.159l-9.628-8.53L1.434,10.353a.335.335,0,0,1-.211.07ZM11.045.881a.247.247,0,0,0-.159.053L1.073,9.684a.378.378,0,0,0-.079.5.282.282,0,0,0,.194.123.22.22,0,0,0,.185-.053l9.69-8.468h0L20.69,10.3h.123a.282.282,0,0,0,.22-.132.387.387,0,0,0-.088-.493L11.133.934Z" transform="translate(0 0)" fill="#aaa"/>
  </g>
</svg>
