<svg xmlns="http://www.w3.org/2000/svg" width="22" height="22.69" viewBox="0 0 22 22.69">
  <g id="home-svgrepo-com-09" transform="translate(0 0.002)">
    <path id="路径_441" data-name="路径 441" d="M22,14a.767.767,0,0,0-.761-.761,1.646,1.646,0,0,0-.24,0h-.059V10.307a1.318,1.318,0,0,0-.375-1.031.75.75,0,0,1-.24-.627,1.119,1.119,0,0,0-.96-1.113h-.31l.088-.129.732-1.066a1.119,1.119,0,0,0-.322-1.716L17.716,3.332l-2.19-1.488L13.136.216a1.1,1.1,0,0,0-1.581.293l-.217.316L10.032,2.74,6.044,8.6a.328.328,0,0,1-.287.158h-1.3l.094-.949c.088-.9.176-1.757.258-2.659a.281.281,0,0,1,.2-.275A2.214,2.214,0,0,0,6,4.064a.258.258,0,0,1,.293-.129L8.147,4.1l.381.035c.269,0,.463-.094.492-.322a.322.322,0,0,0-.064-.264.521.521,0,0,0-.363-.17L7.848,3.32,6.313,3.168a.873.873,0,0,0-.9.4,1.622,1.622,0,0,1-.767.621.908.908,0,0,0-.586.849c-.064.744-.141,1.488-.211,2.231-.047.463-.094.925-.135,1.388,0,.088-.035.1-.105.094H3.4l.287-2.928c.1-1,.2-2,.3-3,.035-.334.141-.422.474-.387L9.248,2.9a.5.5,0,0,0,.4-.094.334.334,0,0,0,.123-.246c0-.228-.152-.387-.445-.416L8.2,2.049l-.9-.088-.8-.082c-.65-.07-1.353-.123-2.026-.2A1.1,1.1,0,0,0,3.227,2.711L3,5.054c-.07.48-.07.943-.135,1.388a7.389,7.389,0,0,1-.082.791V7.49H2.12A1.171,1.171,0,0,0,.843,8.784a.211.211,0,0,1-.129.2A1.417,1.417,0,0,0,0,10.219v11a1.476,1.476,0,0,0,1.089,1.429l.094.035H19.708a1.488,1.488,0,0,0,1.171-1.558v-2.9h.088a1.956,1.956,0,0,0,.264,0,.756.756,0,0,0,.709-.761C22,16.187,22,15.051,22,14ZM19.239,8.281c.223,0,.334.2.316.474H18.2c.17-.486.51-.556,1.042-.474Zm-12.3.351,3.778-5.54,1.406-2.073c.111-.158.2-.234.293-.252a.492.492,0,0,1,.357.123l6.343,4.322c.3.211.334.351.117.668l-.492.738c-.422.586-.861,1.253-1.277,1.892a.445.445,0,0,1-.521.234l.228-.34c.211-.316.416-.586.627-.914a.931.931,0,0,0,.07-1.048,1.587,1.587,0,0,1-.176-.966.8.8,0,0,0-.369-.814l-3.35-2.319a.8.8,0,0,0-.873-.059,1.851,1.851,0,0,1-1.1.2.843.843,0,0,0-.814.445L9.728,5.059,9.013,6.1c-.146.223-.293.439-.445.65-.392.586-.8,1.171-1.171,1.757a.451.451,0,0,1-.515.24,1.242,1.242,0,0,1,.059-.111Zm5.406-2.343h-.094A2.706,2.706,0,0,0,9.64,8.462c-.064.3-.064.3-.381.3H8.129L8.17,8.7l.152-.217.832-1.224c.867-1.277,1.757-2.548,2.6-3.824a.316.316,0,0,1,.34-.17,2.231,2.231,0,0,0,1.253-.234.234.234,0,0,1,.281,0c1.013.72,2.108,1.452,3.186,2.179a.234.234,0,0,1,.123.258A2.472,2.472,0,0,0,17.2,6.8a.24.24,0,0,1,0,.211c-.322.5-.691,1.037-1.113,1.64a.246.246,0,0,1-.158.1h-.843c-.076,0-.088,0-.105-.117a2.688,2.688,0,0,0-2.63-2.343Zm1.868,2.448H10.372A1.95,1.95,0,0,1,12.3,7.027h.035a1.95,1.95,0,0,1,1.88,1.71ZM1.693,8.409a.41.41,0,0,1,.316-.135h.668v.088a2.928,2.928,0,0,1-.035.316s-.047.059-.064.064H1.622a.457.457,0,0,1,.07-.334Zm-.9,1.663a.7.7,0,0,1,.644-.556H19.327c.621,0,.878.258.878.884v.668H.785V10.8a5.95,5.95,0,0,1,.006-.726Zm19.368,11.28a.685.685,0,0,1-.586.586,1.856,1.856,0,0,1-.258,0H1.64a1.857,1.857,0,0,1-.258,0A.679.679,0,0,1,.8,21.353a6.946,6.946,0,0,1,0-.7c0-.088,0-.182,0-.275H2.343a.586.586,0,0,0,.369-.123.363.363,0,0,0,.088-.264c0-.135-.064-.369-.451-.369H.779v-7.76H20.164v1.37H17.137a2.495,2.495,0,0,0-2.05,3.854,2.431,2.431,0,0,0,2.173,1.142h2.893v1.394H4.445a.375.375,0,0,0,0,.738,1.611,1.611,0,0,0,.234,0H20.164v.275a6.887,6.887,0,0,1-.006.72Zm1.083-4.1c0,.094,0,.146-.041.17a.262.262,0,0,1-.158.035H17.166a1.757,1.757,0,0,1-.387-3.4,2.126,2.126,0,0,1,.51-.053h3.754a.258.258,0,0,1,.164.035.269.269,0,0,1,.035.164c-.012.914-.012,1.892,0,3.069Z" transform="translate(0 0)" fill="#aaa"/>
    <path id="路径_442" data-name="路径 442" d="M28.5,24.538h0a1.353,1.353,0,0,0-.96.4,1.318,1.318,0,0,0-.392.96,1.37,1.37,0,0,0,1.359,1.359h0a1.365,1.365,0,1,0,0-2.723Zm.428,1.757a.621.621,0,0,1-.428.176h0a.586.586,0,0,1-.428-.17.627.627,0,0,1-.176-.428.61.61,0,0,1,.6-.6.621.621,0,0,1,.586.586.586.586,0,0,1-.152.463Z" transform="translate(-11.249 -10.166)" fill="#aaa"/>
  </g>
</svg>
