<svg xmlns="http://www.w3.org/2000/svg" width="22" height="22" viewBox="0 0 22 22">
  <path id="home-svgrepo-com-07" d="M22.006,6.956a1.706,1.706,0,0,0-.5-1.192,1.68,1.68,0,0,0-1.187-.5H17.88a.421.421,0,0,1-.41-.164.41.41,0,0,1,.044-.437,3.077,3.077,0,0,0,.219-2.865A3.124,3.124,0,0,0,15.451,0H14.444a3.031,3.031,0,0,0-2.282,1.821c-.3.585-.547,1.2-.815,1.837h0a.35.35,0,0,1-.689,0h-.066l.06-.033A18.5,18.5,0,0,0,9.793,1.75,3.156,3.156,0,0,0,8.152.159,3.027,3.027,0,0,0,7.665.027H6.57A3.146,3.146,0,0,0,4.535,1.28a3.066,3.066,0,0,0-.1,3.347l.055-.044-.044.055a.372.372,0,0,1,.082.421.356.356,0,0,1-.334.208H1.832a1.729,1.729,0,0,0-1.784,1.3.732.732,0,0,0-.038.1V8.7A1.832,1.832,0,0,0,1.044,9.93a.459.459,0,0,1,.268.437v9.865a1.728,1.728,0,0,0,1.313,1.723A1.681,1.681,0,0,0,3.074,22H18.942a1.718,1.718,0,0,0,1.745-1.766V10.526a.662.662,0,0,1,.383-.656,1.64,1.64,0,0,0,.936-1.515C22.011,7.918,22.011,7.481,22.006,6.956ZM9.421,6.611a.472.472,0,0,1,.531-.53h2.041c.438,0,.547.12.547.547V20.572a.465.465,0,0,1-.58.58H9.946a.469.469,0,0,1-.514-.53c.005-4.511.005-9.236,0-14.01Zm6.068-1.438a2.918,2.918,0,0,1-.711.082H12.223a.421.421,0,0,1-.372-.159.377.377,0,0,1,0-.377l.3-.733A12.541,12.541,0,0,1,13.18,1.8,1.987,1.987,0,0,1,15.434.886a2.187,2.187,0,0,1,.055,4.287ZM13.952,21.162a.45.45,0,0,1-.558-.552v-10c0-.2,0-.345.12-.459a.6.6,0,0,1,.465-.115H19.3a.459.459,0,0,1,.547.547v9.466c0,.766-.345,1.094-1.094,1.094h-4.8Zm3.07-11.954H13.963a.608.608,0,0,1-.454-.109.59.59,0,0,1-.12-.448V6.633a.579.579,0,0,1,.131-.416.547.547,0,0,1,.4-.137h6.2A.941.941,0,0,1,21.18,7.136V8.2a.941.941,0,0,1-1.034,1.034H17.021ZM7.78,5.25H7.5A6.63,6.63,0,0,1,6.8,5.217,2.194,2.194,0,0,1,6.494.908,2.77,2.77,0,0,1,7.118.82a1.921,1.921,0,0,1,1.7.962A12.536,12.536,0,0,1,9.853,3.91l.246.607c.1.235.17.41.055.574s-.263.164-.547.164H7.78Zm.3,3.964H1.947C1.165,9.214.82,8.87.814,8.12v-1A.935.935,0,0,1,1.821,6.114H8.113a.5.5,0,0,1,.367.131.492.492,0,0,1,.126.366c0,.629,0,1.367,0,2.105a.547.547,0,0,1-.126.394A.547.547,0,0,1,8.081,9.214ZM2.133,10.587a.547.547,0,0,1,.115-.432.547.547,0,0,1,.432-.115H8.064a.547.547,0,0,1,.432.12.574.574,0,0,1,.109.432V20.61a.455.455,0,0,1-.564.552H3.233a.957.957,0,0,1-1.094-1.094c0-2.346,0-4.719,0-7.054Z" transform="translate(-0.01)" fill="#aaa"/>
</svg>
