<svg xmlns="http://www.w3.org/2000/svg" width="24.135" height="23.68" viewBox="0 0 24.135 23.68">
  <g id="_6" data-name="6" transform="translate(0 -0.001)">
    <path id="路径_144" data-name="路径 144" d="M19.291,2.456C16.819-.414,3.566.78.6,1.078c-.4,0-.6.3-.6.7A7.969,7.969,0,0,0,1.293,6.036a.952.952,0,0,0,.682.4H5.682a1.421,1.421,0,0,1,.7.2c.881.5.5.994,0,1.179a1.875,1.875,0,0,1-.8.2,7.3,7.3,0,0,0-2.472.1.241.241,0,0,0-.1.4,11.08,11.08,0,0,0,7.1,2.173.54.54,0,0,1,.5.3c.469,1.776,3.04,2.557,3.04,2.557,2.074.8,2.173-2.415,2.173-2.415,3.367,5.341-2.273,5.242-2.273,5.242a4.162,4.162,0,0,0-4.943-2.529c-.2,0-.2.2-.1.3,2.671,2.841.7,7.515.1,8.708-.1.2,0,.4.2.4,2.671,1.08,4.844-2.571,4.844-2.571,6.733-.3,8.31-4.063,8.31-4.063C28.1,8,19.291,2.456,19.291,2.456ZM6.506,5.027a.625.625,0,0,1-.6-.582.639.639,0,0,1,.6-.6.625.625,0,0,1,.582.6.6.6,0,0,1-.653.582Zm4.347.8L9.944,7.215a.814.814,0,1,1-1.421-.8l.682-.98-.5-.881a.8.8,0,0,1,.3-1.094.781.781,0,0,1,1.08.3l.6.994a.341.341,0,0,1,.1.284,1.094,1.094,0,0,1,0,.781Zm2.77.2-.838,1.392a.8.8,0,0,1-1.08.284.781.781,0,0,1-.341-1.08l.6-.994-.5-.781a.8.8,0,0,1,.3-1.094.781.781,0,0,1,1.094.27l.6.98a.369.369,0,0,1,.1.3.483.483,0,0,1,0,.724Z" transform="translate(0 0.243)" fill="#2b2c2c"/>
    <path id="路径_145" data-name="路径 145" d="M13.322.724c.8-.3,3.367-1.278,5.043-.3,0,0,.1.1,0,.1a4.9,4.9,0,0,0-1.421,3.068.1.1,0,0,1-.1.1c-.554-.6-2.429-2.571-3.523-2.77C13.223.824,13.223.724,13.322.724Z" transform="translate(5.571 0)" fill="#2b2c2c"/>
  </g>
</svg>
