<svg xmlns="http://www.w3.org/2000/svg" width="24.066" height="23.978" viewBox="0 0 24.066 23.978">
  <g id="cp" transform="translate(0.011 0.001)">
    <path id="路径_208" data-name="路径 208" d="M21.81,5A11.74,11.74,0,0,0,14.21.2,16.35,16.35,0,0,0,12,0,11.8,11.8,0,0,0,3.7,3.3,12.69,12.69,0,0,0,0,11.4a12.14,12.14,0,0,0,2.9,8.4,13,13,0,0,0,8,4.1,11,11,0,0,0,8.5-2.6,12,12,0,0,0,4.5-7.8A11,11,0,0,0,21.81,5ZM8.41,17.9c-2.9,0-5.2-2.7-5.2-5.9s2.3-5.9,5.2-5.9,5.2,2.7,5.2,5.9S11.31,17.9,8.41,17.9Z" fill="#333"/>
    <path id="路径_209" data-name="路径 209" d="M8.41,7.1a2.3,2.3,0,1,0,2.3,2.3,2.4,2.4,0,0,0-2.3-2.3Zm0,3.1a.9.9,0,1,1,.9-.9A.9.9,0,0,1,8.41,10.2Z" fill="#333"/>
    <path id="路径_210" data-name="路径 210" d="M8.31,10.6a3,3,0,1,0,3,3,3,3,0,0,0-3-3Zm0,4.4a1.5,1.5,0,1,1,1.5-1.5A1.37,1.37,0,0,1,8.31,15Z" fill="#333"/>
  </g>
</svg>
