<svg xmlns="http://www.w3.org/2000/svg" width="27.79" height="21.845" viewBox="0 0 27.79 21.845">
  <g id="_7" data-name="7" transform="translate(0.001 0)">
    <path id="路径_146" data-name="路径 146" d="M18.4,0H4.724A3.523,3.523,0,0,0,1.23,3.494V17.4a1.057,1.057,0,0,0,1.057,1.057H20.842a1.072,1.072,0,0,0,1.072-1.057V3.494A3.464,3.464,0,0,0,18.4,0ZM9.186,2.936A.675.675,0,0,1,9.817,2.3h3.817a.675.675,0,0,1,.631.631V7.927a.661.661,0,0,1-.631.631H9.817a.661.661,0,0,1-.631-.631Zm3.919,8.808a1.38,1.38,0,1,1-1.38-1.468A1.468,1.468,0,0,1,13.106,11.744ZM3.241,2.936a.69.69,0,0,1,.587-.6H7.7a.69.69,0,0,1,.631.6V7.927a.675.675,0,0,1-.631.631H3.828A.675.675,0,0,1,3.2,7.927Zm4.565,8.617a.954.954,0,1,1-.954-.954A.954.954,0,0,1,7.806,11.553Zm11.553,4.888H3.99a.734.734,0,0,1-.749-.749.719.719,0,0,1,.749-.734H19.359a.719.719,0,0,1,.749.734.734.734,0,0,1-.749.749ZM15.44,11.553a.954.954,0,1,1,.274.684A.954.954,0,0,1,15.44,11.553Zm4.668-3.494a.675.675,0,0,1-.646.631H15.645a.675.675,0,0,1-.631-.631V2.936a.69.69,0,0,1,.631-.631h3.817a.69.69,0,0,1,.646.631Z" transform="translate(0.576 0)" fill="#2b2c2c"/>
    <path id="路径_147" data-name="路径 147" d="M23.12,15.554H1.057A1,1,0,0,1,0,14.5H0a1,1,0,0,1,1.057-1.057H23.076A1,1,0,0,1,24.133,14.5h0a1.057,1.057,0,0,1-1.013,1.057Z" transform="translate(0 6.288)" fill="#2b2c2c"/>
    <path id="路径_148" data-name="路径 148" d="M18.627,11.658H15.544a.954.954,0,0,1-.954-.954h0a.954.954,0,0,1,.954-.954h3.083a.954.954,0,0,1,.954.954h0a.954.954,0,0,1-.954.954Z" transform="translate(6.828 4.562)" fill="#2b2c2c"/>
    <path id="路径_149" data-name="路径 149" d="M17.644,14.466h0a.954.954,0,0,1-.954-.954V4.7a.954.954,0,0,1,.954-.954h0A.954.954,0,0,1,18.6,4.7v8.808a.954.954,0,0,1-.954.954Z" transform="translate(7.81 1.755)" fill="#2b2c2c"/>
    <circle id="椭圆_11" data-name="椭圆 11" cx="2.334" cy="2.334" r="2.334" transform="translate(23.12 2.231)" fill="#2b2c2c"/>
    <path id="路径_150" data-name="路径 150" d="M5.056,6.908H4A6.694,6.694,0,0,1,5.584,3.091H3.25V2.24H6.758v.749a6.415,6.415,0,0,0-1.7,3.919Z" transform="translate(1.521 1.048)" fill="#2b2c2c"/>
    <path id="路径_151" data-name="路径 151" d="M9.026,6.908H7.969A6.694,6.694,0,0,1,9.554,3.091H7.22V2.24h3.508v.749a6.591,6.591,0,0,0-1.7,3.919Z" transform="translate(3.379 1.048)" fill="#2b2c2c"/>
    <path id="路径_152" data-name="路径 152" d="M13.006,6.908H11.934a6.826,6.826,0,0,1,1.6-3.817H11.2V2.24h3.494v.749a7.149,7.149,0,0,0-1.688,3.919Z" transform="translate(5.241 1.048)" fill="#2b2c2c"/>
  </g>
</svg>
