<svg xmlns="http://www.w3.org/2000/svg" width="26.922" height="20.196" viewBox="0 0 26.922 20.196">
  <g id="_3" data-name="3" transform="translate(-0.008)">
    <path id="路径_129" data-name="路径 129" d="M6.017,5a1.991,1.991,0,0,0-1.373.6,1.812,1.812,0,0,0-.6,1.373,1.922,1.922,0,0,0,.6,1.373,2.155,2.155,0,0,0,1.373.6,1.977,1.977,0,0,0,1.373-.6,2.087,2.087,0,0,0,.6-1.373A1.922,1.922,0,0,0,7.39,5.6,2.155,2.155,0,0,0,6.017,5Z" transform="translate(1.503 1.864)" fill="#2b2c2c"/>
    <path id="路径_130" data-name="路径 130" d="M26.782,12.932C25.9,5.4,24.365,0,19.437,0c-2.485,0-3.775,2.54-6,2.746C11.158,2.54,9.936,0,7.452,0,2.523,0,.972,5.4.175,12.864c-.481,4,0,7.331,2.416,7.331,3.5,0,3.638-3.13,6.137-4.6a15.1,15.1,0,0,1,4.778-.728A15.1,15.1,0,0,1,18.3,15.6c2.485,1.469,2.622,4.6,6.137,4.6C26.85,20.263,27.193,16.927,26.782,12.932ZM7.561,12.26h0a3.473,3.473,0,1,1,0-6.864,3.473,3.473,0,1,1,0,6.933ZM23.253,9.514H20.508V12.26H19.135V9.514H16.389V8.141h2.746V5.491h1.373V8.127h2.746Z" transform="translate(0)" fill="#2b2c2c"/>
  </g>
</svg>
