<svg xmlns="http://www.w3.org/2000/svg" width="20" height="22" viewBox="0 0 20 22">
  <g id="home-svgrepo-com-08" transform="translate(0.044 0.08)">
    <path id="路径_439" data-name="路径 439" d="M19.846,25.315A9.3,9.3,0,0,0,16.7,19.458a2.514,2.514,0,0,0-.757-.474,2.743,2.743,0,0,0-2.536.181,6.461,6.461,0,0,1-2.891.915,6.922,6.922,0,0,1-4.138-.955,2.72,2.72,0,0,0-3.145.288A9.48,9.48,0,0,0,.343,23.977a11.6,11.6,0,0,0-.361,3.745,2.291,2.291,0,0,0,.361,1.13,2.779,2.779,0,0,0,1.886,1.265H17.765a2.529,2.529,0,0,0,2.122-2.186A9.766,9.766,0,0,0,19.846,25.315ZM18.817,27.7a1.509,1.509,0,0,1-.562,1.044,1.652,1.652,0,0,1-1.17.357H2.855a1.747,1.747,0,0,1-1.336-.486,1.381,1.381,0,0,1-.432-.988v-.158a11.056,11.056,0,0,1,.26-3.078A8.495,8.495,0,0,1,3.99,20.187a1.593,1.593,0,0,1,1.9-.136,7.994,7.994,0,0,0,7.946.062,1.794,1.794,0,0,1,1.584-.209,2.122,2.122,0,0,1,.674.463,8.448,8.448,0,0,1,2.625,4.976A13.625,13.625,0,0,1,18.817,27.7Z" transform="translate(0 -8.196)" fill="#aaa"/>
    <path id="路径_440" data-name="路径 440" d="M12.841,11.121h0a5.734,5.734,0,0,0,5.835-5.552,5.361,5.361,0,0,0-1.691-3.954A5.957,5.957,0,0,0,12.847-.08h0A5.925,5.925,0,0,0,8.708,1.575,5.352,5.352,0,0,0,7,5.534,5.417,5.417,0,0,0,8.7,9.5,5.941,5.941,0,0,0,12.841,11.121ZM8.111,5.54A4.624,4.624,0,0,1,12.77,1.021h.106a4.793,4.793,0,0,1,3.334,1.288,4.376,4.376,0,0,1,1.106,4.982,4.74,4.74,0,0,1-4.452,2.8h0A4.843,4.843,0,0,1,9.507,8.757,4.417,4.417,0,0,1,8.135,5.54Z" transform="translate(-2.879)" fill="#aaa"/>
  </g>
</svg>
