<svg xmlns="http://www.w3.org/2000/svg" xmlns:xlink="http://www.w3.org/1999/xlink" width="23.757" height="28.557" viewBox="0 0 23.757 28.557">
  <defs>
    <clipPath id="clip-path">
      <rect id="矩形_1840" data-name="矩形 1840" width="23.757" height="28.557" fill="none"/>
    </clipPath>
  </defs>
  <g id="_8" data-name="8" clip-path="url(#clip-path)">
    <path id="路径_153" data-name="路径 153" d="M1.556,12.057a1.737,1.737,0,0,0,1.206.109C1.086,11.852-.349,8.837.073,8.041a2.05,2.05,0,0,0,.543.4A2.75,2.75,0,0,1,.145,6.22a1.206,1.206,0,0,1,.941,0,1.64,1.64,0,0,1,.121-1.64,1.507,1.507,0,0,1,1.206.446c-.326-.7,0-2.412.941-1.857a1.845,1.845,0,0,1,.8.784C4.426,4.484,5.7,7.872,7.224,8.7c1.821-.326,5.7.941,7.236,0a4.824,4.824,0,0,0,1.206-2.81A5.041,5.041,0,0,1,18.222,2.18a6.03,6.03,0,0,0,.8-.386L19.3,1.71A3.015,3.015,0,0,1,19.2.5c.1-.639.712-.241.82-.362.277-.314.639,0,.76.265s.072.289.157,0c.133-.434.675,0,.627.3s0,.422.109.205.157-.169.289-.157.579.084.482.446c-.169.6.181.145.41.374s.639,1.459,0,1.6a1.134,1.134,0,0,1,.892,1.025,2.291,2.291,0,0,0-1.206,0,.736.736,0,0,1-.157.627c-.229.229-.314.989-.9.868a1.1,1.1,0,0,1-.712-.338,44.427,44.427,0,0,0,.989,6.03c.531,2.967.434,4.824-2.014,6.886a9.455,9.455,0,0,1-2.967,1.7,3.919,3.919,0,0,0-1.99,2.653c-.229,1.206-.663,1.049-1.314.941a12.947,12.947,0,0,0,.145,1.375,4.956,4.956,0,0,0,.35,1.58c.241,0,1-.229,1.4-.277a2.786,2.786,0,0,1,.555-.06.868.868,0,0,1,.591.157.567.567,0,0,1,.109.145.687.687,0,0,0-.314,0,.7.7,0,0,1-.338.145,6.343,6.343,0,0,0-1.073.072,4.932,4.932,0,0,0,1.206,0,1.664,1.664,0,0,1,.47-.109,2.122,2.122,0,0,1,1.1.121.543.543,0,0,1,.265.651.567.567,0,0,0-.519-.277,4.257,4.257,0,0,1-.772.193,9.359,9.359,0,0,0-1.423,0,4.161,4.161,0,0,0-.772,0,.724.724,0,0,1,.615.506,1.447,1.447,0,0,1-.169.591,1.363,1.363,0,0,0-.314-.374c-.326-.265-1.327-.084-1.459-.326a1.3,1.3,0,0,1-.229-.784,1.869,1.869,0,0,0-.724.712.217.217,0,0,1-.145-.109.181.181,0,0,1,0-.157,1.206,1.206,0,0,1,.362-.555,1.447,1.447,0,0,0,.47-.917c0-.289-.217-.35-.217-.6a3.341,3.341,0,0,0,0-.6c0-.084-.1-.7-.133-1.146a.712.712,0,0,1-.579-.531,4.993,4.993,0,0,0-.519-1.206c-.446-.072-1.109-.072-1.749-.145-.181.446-.555,1.327-.724,1.761a4.968,4.968,0,0,0-.494,1.773c.217.06.953.072,1.327.121a3.268,3.268,0,0,1,.494.109.615.615,0,0,1,.446.338v.181a.941.941,0,0,0-.241-.133.76.76,0,0,1-.362,0,4.45,4.45,0,0,0-.953-.253,3.232,3.232,0,0,0,1,.374,1.508,1.508,0,0,1,.458,0,1.544,1.544,0,0,1,.844.434.627.627,0,0,1-.133.724.422.422,0,0,0-.289-.422,4.148,4.148,0,0,1-.772,0,10.335,10.335,0,0,0-1.206-.362,4.607,4.607,0,0,0-.675-.169.579.579,0,0,1,.241.687,1.532,1.532,0,0,1-.458.506,1.471,1.471,0,0,0,0-.458c-.145-.374-1.1-.482-1.085-.736a1.8,1.8,0,0,1,.157-.8,2.834,2.834,0,0,0-1.013.494.217.217,0,0,1,0-.3,1.93,1.93,0,0,1,.615-.422,2.1,2.1,0,0,0,.892-.76c.145-.289,0-.41.145-.651s.241-.386.35-.591.289-.844.47-1.314L8.575,21.7C8,21.548,2.931,19.389,3.534,15.1c-1.206-.434-2.412-2.279-1.978-2.979Zm0,0" transform="translate(0 0.002)"/>
  </g>
</svg>
