<svg xmlns="http://www.w3.org/2000/svg" width="31.812" height="24.068" viewBox="0 0 31.812 24.068">
  <g id="_2" data-name="2" transform="translate(0.018 -0.001)">
    <path id="路径_126" data-name="路径 126" d="M8.859,21.946a2.443,2.443,0,0,1-2.41-2.41V1.28L1.5,2.931A2.113,2.113,0,0,0,.144,5.77L5.657,21.814a2.129,2.129,0,0,0,2.707,1.3l3.4-1.2H8.859Z" transform="translate(0 0.832)" fill="#2b2c2c"/>
    <path id="路径_127" data-name="路径 127" d="M6.69,20.227a.941.941,0,0,1-.611-1.2L11.856.568c0-.1.1-.1.1-.2H7A2.113,2.113,0,0,0,4.94,2.483V19.435a2.1,2.1,0,0,0,2.1,2.1h4.209Z" transform="translate(3.226 0.24)" fill="#2b2c2c"/>
    <path id="路径_128" data-name="路径 128" d="M25.789,3.515,14.763.115a2.179,2.179,0,0,0-2.773,1.4L7.038,17.76a2.179,2.179,0,0,0,1.4,2.707l11.043,3.417a2.2,2.2,0,0,0,2.707-1.4L27.142,6.239a2.113,2.113,0,0,0-1.354-2.724Zm-3.4,8.435a2.476,2.476,0,0,1-1.007,1.4c-.908.594-3.2,1.8-4.622,2.509a1.486,1.486,0,0,1-2-.611c-.809-1.5-1.9-3.7-2.41-4.7a2.542,2.542,0,0,1,0-1.651,2.856,2.856,0,0,1,3.615-1.8,3.07,3.07,0,0,1,1.9,1.8,3.021,3.021,0,0,1,2.608-.4A2.839,2.839,0,0,1,22.389,11.95Z" transform="translate(4.529 0)" fill="#2b2c2c"/>
  </g>
</svg>
