<svg xmlns="http://www.w3.org/2000/svg" width="23.881" height="24.374" viewBox="0 0 23.881 24.374">
  <g id="_5" data-name="5" transform="translate(0.008 0)">
    <path id="路径_133" data-name="路径 133" d="M17.51,7.735l2.327,1.617A9.566,9.566,0,0,0,18.429,5.2Z" transform="translate(3.938 1.169)" fill="#2b2c2c"/>
    <path id="路径_134" data-name="路径 134" d="M10.49,3.374V7.049L14.03,9.78,17.7,8.555l1.409-4.042a8.317,8.317,0,0,0-.931-1A11.587,11.587,0,0,0,14.238.851a.563.563,0,0,0-.4-.11Z" transform="translate(2.36 0.166)" fill="#2b2c2c"/>
    <path id="路径_135" data-name="路径 135" d="M14.814,16.956l4.14.2a11.734,11.734,0,0,0,2.119-6.565L17.533,8.26,13.859,9.485,12.45,13.931Z" transform="translate(2.801 1.857)" fill="#2b2c2c"/>
    <path id="路径_136" data-name="路径 136" d="M12.365,13.505l1.323-4.14L10.442,6.94,7.11,9.365l1.311,4.14Z" transform="translate(1.6 1.56)" fill="#2b2c2c"/>
    <path id="路径_137" data-name="路径 137" d="M10.257,2.119,12.584.306A8.868,8.868,0,0,0,10.257,0,16.756,16.756,0,0,0,7.93.208Z" transform="translate(1.785 0)" fill="#2b2c2c"/>
    <path id="路径_138" data-name="路径 138" d="M14.9,16.658,12.679,13.62H8.527L6.2,16.756,7.315,20.81a11.562,11.562,0,0,0,3.136.5,11.709,11.709,0,0,0,3.136-.5Z" transform="translate(1.396 3.062)" fill="#2b2c2c"/>
    <path id="路径_139" data-name="路径 139" d="M14.59,16.68l-.71,2.633a11.954,11.954,0,0,0,3.442-2.45l.1-.1Z" transform="translate(3.122 3.75)" fill="#2b2c2c"/>
    <path id="路径_140" data-name="路径 140" d="M5.649,16.6l-2.829.1.2.2a13.963,13.963,0,0,0,3.442,2.45Z" transform="translate(0.636 3.732)" fill="#2b2c2c"/>
    <path id="路径_141" data-name="路径 141" d="M3.7,8.144l3.54,1.421,3.43-2.633V3.391L7.343.66h0c-.208.1-.306.1-.4.208A11.587,11.587,0,0,0,2.994,3.526c-.208.208-.306.4-.514.612Z" transform="translate(0.559 0.148)" fill="#2b2c2c"/>
    <path id="路径_142" data-name="路径 142" d="M2.705,7.462,1.9,4.62A12.248,12.248,0,0,0,.17,8.968Z" transform="translate(0.04 1.039)" fill="#2b2c2c"/>
    <path id="路径_143" data-name="路径 143" d="M6.383,16.932l2.192-3.038L7.191,9.339,3.676,7.93,0,10.049a11.771,11.771,0,0,0,2.021,7.08Z" transform="translate(0 1.783)" fill="#2b2c2c"/>
  </g>
</svg>
